<?xml version="1.0" encoding="UTF-8" standalone="no"?>
<!-- Created with Inkscape (http://www.inkscape.org/) -->

<svg
   xmlns:dc="http://purl.org/dc/elements/1.1/"
   xmlns:cc="http://creativecommons.org/ns#"
   xmlns:rdf="http://www.w3.org/1999/02/22-rdf-syntax-ns#"
   xmlns:svg="http://www.w3.org/2000/svg"
   xmlns="http://www.w3.org/2000/svg"
   xmlns:sodipodi="http://sodipodi.sourceforge.net/DTD/sodipodi-0.dtd"
   xmlns:inkscape="http://www.inkscape.org/namespaces/inkscape"
   id="svg3055"
   version="1.1"
   inkscape:version="0.48.4 r9939"
   width="911.25"
   height="228.74687"
   xml:space="preserve"
   sodipodi:docname="Vectrex.svg"><metadata
     id="metadata3061"><rdf:RDF><cc:Work
         rdf:about=""><dc:format>image/svg+xml</dc:format><dc:type
           rdf:resource="http://purl.org/dc/dcmitype/StillImage" /><dc:title></dc:title></cc:Work></rdf:RDF></metadata><defs
     id="defs3059" /><sodipodi:namedview
     pagecolor="#ffffff"
     bordercolor="#666666"
     borderopacity="1"
     objecttolerance="10"
     gridtolerance="10"
     guidetolerance="10"
     inkscape:pageopacity="0"
     inkscape:pageshadow="2"
     inkscape:window-width="1198"
     inkscape:window-height="746"
     id="namedview3057"
     showgrid="false"
     inkscape:zoom="0.44120243"
     inkscape:cx="460.10626"
     inkscape:cy="10.171878"
     inkscape:window-x="274"
     inkscape:window-y="167"
     inkscape:window-maximized="0"
     inkscape:current-layer="g3063"
     fit-margin-top="0"
     fit-margin-left="0"
     fit-margin-right="0"
     fit-margin-bottom="0" /><g
     id="g3063"
     inkscape:groupmode="layer"
     inkscape:label="ink_ext_XXXXXX"
     transform="matrix(1.25,0,0,-1.25,0,437.15)"><path
       inkscape:connector-curvature="0"
       id="path3067"
       style="fill:#231f20;fill-opacity:1;fill-rule:nonzero;stroke:none"
       d="m 309.35,250.37 c -19.13,-19.14 -19.13,-50.16 0,-69.3 19.14,-19.13 50.16,-19.13 69.3,0 16.55,16.55 18.78,41.99 6.71,60.94 L 359,215.65 c -0.02,-3.82 -1.48,-7.63 -4.39,-10.54 -5.86,-5.85 -15.36,-5.85 -21.22,0 -5.85,5.86 -5.85,15.36 0,21.22 5.86,5.85 15.36,5.85 21.22,0 l 0.45,-0.48 24.05,24.05 -0.46,0.47 c -19.14,19.13 -50.16,19.13 -69.3,0" /><path
       inkscape:connector-curvature="0"
       id="path3069"
       style="fill:#231f20;fill-opacity:1;fill-rule:nonzero;stroke:none"
       d="m 118.43,166.92 118.43,134.81 -49.42,0 -75.7,-77.07 c -2.31,-2.35 -6.06,-2.35 -8.37,0 -2.31,2.35 -2.31,6.17 0,8.53 l 67.33,68.54 -170.7,0 118.43,-134.81" /><path
       inkscape:connector-curvature="0"
       id="path3071"
       style="fill:#231f20;fill-opacity:1;fill-rule:nonzero;stroke:none"
       d="m 646.97,215.94 -41.01,-48.22 33.51,0 31.93,32.51 c 1.85,1.88 4.85,1.88 6.7,0 1.85,-1.88 1.85,-4.93 0,-6.82 l -25.23,-25.69 76.13,0 -41.01,48.22 41.01,48.22 -33.51,0 -31.93,-32.51 c -1.85,-1.89 -4.85,-1.89 -6.7,0 -1.85,1.88 -1.85,4.93 0,6.82 l 25.23,25.69 -76.13,0 41.01,-48.22" /><path
       inkscape:connector-curvature="0"
       id="path3073"
       style="fill:#231f20;fill-opacity:1;fill-rule:nonzero;stroke:none"
       d="m 458.21,264.16 0,-96.44 30.78,0 0,62.68 23.34,0 28.71,33.76 -33.51,0 -31.94,-32.51 c -1.84,-1.89 -4.84,-1.89 -6.69,0 -1.85,1.88 -1.85,4.93 0,6.82 l 25.23,25.69 -35.92,0" /><path
       inkscape:connector-curvature="0"
       id="path3075"
       style="fill:#231f20;fill-opacity:1;fill-rule:nonzero;stroke:none"
       d="m 435.26,263.75 18.6,0 30.72,31.75 -49.32,0 0,54.22 -75.03,-85.97 32.81,0 22.47,20.87 c 1.85,1.88 4.85,1.88 6.69,0 1.85,-1.89 1.85,-4.94 0,-6.82 l -17.72,-18.05 0,-92.03 30.78,0 0,96.03" /><path
       inkscape:connector-curvature="0"
       id="path3077"
       style="fill:#231f20;fill-opacity:1;fill-rule:nonzero;stroke:none"
       d="m 225.15,209.94 c -2.27,5.44 -1.19,11.96 3.24,16.39 4.43,4.43 10.95,5.51 16.39,3.24 l -19.63,-19.63 z m -20.8,40.43 c -19.13,-19.14 -19.13,-50.16 0,-69.3 19.14,-19.13 50.16,-19.13 69.3,0 16.55,16.55 18.78,41.99 6.71,60.94 L 254,215.65 c -0.02,-3.82 -1.48,-7.63 -4.39,-10.54 -4.81,-4.8 -12.06,-5.66 -17.74,-2.59 l 44.68,44.68 c -0.77,0.92 -5.69,5.8 -7.17,6.97 -19.23,15.24 -47.26,13.97 -65.03,-3.8" /><path
       inkscape:connector-curvature="0"
       id="path3079"
       style="fill:#231f20;fill-opacity:1;fill-rule:nonzero;stroke:none"
       d="m 559.15,209.94 c -2.27,5.44 -1.19,11.96 3.24,16.39 4.43,4.43 10.95,5.51 16.39,3.24 l -19.63,-19.63 z m -20.8,40.43 c -19.13,-19.14 -19.13,-50.16 0,-69.3 19.14,-19.13 50.16,-19.13 69.3,0 16.55,16.55 18.78,41.99 6.71,60.94 L 588,215.65 c -0.02,-3.82 -1.48,-7.63 -4.39,-10.54 -4.81,-4.8 -12.06,-5.66 -17.74,-2.59 l 44.68,44.68 c -0.77,0.92 -5.69,5.8 -7.17,6.97 -19.23,15.24 -47.26,13.97 -65.03,-3.8" /></g></svg>