<?xml version="1.0" encoding="UTF-8" standalone="no"?>
<!-- Created with Inkscape (http://www.inkscape.org/) -->

<svg
   xmlns:dc="http://purl.org/dc/elements/1.1/"
   xmlns:cc="http://creativecommons.org/ns#"
   xmlns:rdf="http://www.w3.org/1999/02/22-rdf-syntax-ns#"
   xmlns:svg="http://www.w3.org/2000/svg"
   xmlns="http://www.w3.org/2000/svg"
   xmlns:sodipodi="http://sodipodi.sourceforge.net/DTD/sodipodi-0.dtd"
   xmlns:inkscape="http://www.inkscape.org/namespaces/inkscape"
   id="svg3055"
   version="1.1"
   inkscape:version="0.48.4 r9939"
   width="915.00348"
   height="156.25"
   xml:space="preserve"
   sodipodi:docname="Vectrex.svg"><metadata
     id="metadata3061"><rdf:RDF><cc:Work
         rdf:about=""><dc:format>image/svg+xml</dc:format><dc:type
           rdf:resource="http://purl.org/dc/dcmitype/StillImage" /><dc:title></dc:title></cc:Work></rdf:RDF></metadata><defs
     id="defs3059" /><sodipodi:namedview
     pagecolor="#ffffff"
     bordercolor="#666666"
     borderopacity="1"
     objecttolerance="10"
     gridtolerance="10"
     guidetolerance="10"
     inkscape:pageopacity="0"
     inkscape:pageshadow="2"
     inkscape:window-width="1198"
     inkscape:window-height="746"
     id="namedview3057"
     showgrid="false"
     inkscape:zoom="0.44120243"
     inkscape:cx="454.89329"
     inkscape:cy="218.57501"
     inkscape:window-x="274"
     inkscape:window-y="167"
     inkscape:window-maximized="0"
     inkscape:current-layer="g3063"
     fit-margin-top="0"
     fit-margin-left="0"
     fit-margin-right="0"
     fit-margin-bottom="0" /><g
     id="g3063"
     inkscape:groupmode="layer"
     inkscape:label="ink_ext_XXXXXX"
     transform="matrix(1.25,0,0,-1.25,-5.2129673,156.25)"><path
       inkscape:connector-curvature="0"
       id="path3081"
       style="fill:#ffffff;fill-opacity:1;fill-rule:nonzero;stroke:none"
       d="M 230.13,37.6699 C 237.97,19.4 255.6,8.56992 277.29,8.56992 c 16.81,0 30.31,6.59998 41.14,18.88008 0.06,0.0699 19.76,-9.5602 19.76,-9.5602 0,0 0.4,-2.2898 1.8,-3.6898 1.4,-1.4 3.18,-1.2801 3.18,-1.2801 l 37,0 c 0,0 1.78,-0.1199 3.18,1.2801 1.4,1.4 1.8,3.6898 1.8,3.6898 l 19.16,1.9403 c 0,-6.05 1.93,-7.9801 8,-7.9801 l 32.52,0 c 3.42,0 5.28,1.85 5.28,5.2602 l 3.93,10.4 11.78,-13.05 c 0,0 2.24,-2.6102 5.23,-2.6102 l 40.57,0 c 2.25,0 2.8,1.2199 2.7,2.6 0.78,-0.1199 1.67,-0.1801 2.68,-0.1801 l 73.24,0 c 1.31,0 2.35,0.3903 3.17,1 0.25,-0.45 0.61,-0.9199 1.1,-1.4097 0.86,-0.8602 3.25,-0.8 3.25,-0.8 l 45.62,0 c 0,0 2.41,1.0699 3.5,2.15 1.09,1.0898 2.94,3.8296 2.94,3.8296 l 6.27,7.6204 6.25,-7.6204 c 0,0 1.85,-2.7398 2.94,-3.8296 1.08,-1.0801 3.49,-2.15 3.49,-2.15 l 47.62,0 c 0,0 2.4,-0.0602 3.26,0.8 2.89,2.8898 1.04,5.3699 1.04,5.3699 l -27.96,42.9398 26.96,42.9401 c 0,0 1.85,2.48 -1.04,5.37 -0.86,0.86 -3.26,0.8 -3.26,0.8 l -46.62,0 c 0,0 -2.41,-1.07 -3.49,-2.16 -1.09,-1.08 -2.94,-3.83 -2.94,-3.83 l -6.25,-7.6099 -6.27,7.6099 c 0,0 -1.85,2.75 -2.94,3.83 -1.09,1.09 -3.5,2.16 -3.5,2.16 l -45.62,0 c 0,0 -2.39,0.06 -3.25,-0.8 -1,-0.99 -1.43,-1.94 -1.57,-2.75 -0.9,1.8 -2.47,3.52 -5.19,3.52 l -70.75,0 c -5.79,0 -7.63,-1.84 -7.63,-7.61 0,0 -4.29,-36.8099 -4.29,-25.2099 0,19.4597 -14.96,35.2499 -36.65,35.2499 l -56.12,0 c -6.07,0 -8,-1.94 -8,-7.99 l -3.46,-0.01 c 0,0 -0.5,1.58 -2.77,2.77 -2.27,1.18 -5.33,1.57 -5.33,1.57 l -63.15,0 c 0,0 -3.05,-0.39 -5.32,-1.57 -2.27,-1.19 -3.4,-3.4 -3.4,-3.4 l -2.65,-7.35 c -9.72,11.73 -24.44,18.07 -40.94,18.07 -23.66,0 -41.19,-7.12 -47.68,-28.17 -0.27,5.4801 0.18,0.1801 0.18,0.5699 0,1.4 -2.84,15.4701 -2.84,15.4701 0,-0.29 -0.54,7.61 -6.38,7.61 l -72.75,0 c -2.16,0 -3.77,-0.25 -4.94,-0.88 l -0.08,0.09 c -0.86,0.86 -3.52,0.78 -3.52,0.78 l -120.8999,0 c 0,0 -2.6699,0.08 -3.5301,-0.78 -4.45,-4.45 1.7199,-11.3901 1.7199,-11.3901 l 57.8903,-85.8301 8.7296,0 52.5502,73.0704 0.46,-67.4301 c 0,-5.7699 1.84,-7.6102 7.62,-7.6102 L 223.4,11.6 c 5.83,0 6.38,7.9 6.38,7.6102 0,0 0.17,17.0699 0.17,18.4699 0,0.2199 0.28,-2.0102 0.18,-0.0102" /><path
       inkscape:connector-curvature="0"
       id="path3083"
       style="fill:#231f20;fill-opacity:1;fill-rule:nonzero;stroke:none"
       d="m 328.46,84.1898 c 0,0 -0.77,-3.4597 0.09,-4.7898 0.87,-1.3301 2.76,-1.8398 2.76,-1.8398 l 15.9,0 c 0,0 2.06,0.0097 3.04,-0.9704 0.98,-0.9796 0.76,-2.8199 0.76,-2.8199 l 0,-46.65 c 0,0 0.3,-1.75 1.37,-2.8097 1.07,-1.0704 2.43,-0.9801 2.43,-0.9801 l 18.68,0 c 0,0 1.36,-0.0903 2.42,0.9801 1.07,1.0597 1.38,2.8097 1.38,2.8097 l 0,46.65 c 0,0 -0.22,1.8403 0.76,2.8199 0.98,0.9801 3.03,0.9704 3.03,0.9704 l 15.91,0 c 0,0 1.89,0.5097 2.75,1.8398 0.87,1.3301 0.1,4.7898 0.1,4.7898 l -3.25,13.2 c 0,0 -0.15,0.8204 -0.98,1.6 -0.22,0.3 -0.53,0.5903 -0.97,0.8204 -1.73,0.8998 -4.06,1.1998 -4.06,1.1998 l -52.86,0 c 0,0 -2.33,-0.3 -4.06,-1.1998 -0.45,-0.2301 -0.75,-0.5204 -0.97,-0.8204 -0.83,-0.7796 -0.98,-1.6 -0.98,-1.6 l -3.25,-13.2" /><path
       inkscape:connector-curvature="0"
       id="path3085"
       style="fill:#231f20;fill-opacity:1;fill-rule:nonzero;stroke:none"
       d="m 236.74,62.1699 c 0,-23.8699 19.4,-43.2199 43.32,-43.2199 12.88,0 24.43,5.6 32.37,14.4898 l -17.69,17.6403 c -3.36,-4.4102 -8.69,-7.2699 -14.68,-7.2699 -10.16,0 -18.39,8.2199 -18.39,18.3597 0,10.1403 8.23,18.35 18.39,18.35 6.52,0 12.24,-3.3 15.51,-8.4 l 16.93,18.7 c -7.94,8.9301 -19.53,14.5701 -32.44,14.5701 -23.92,0 -43.32,-19.3502 -43.32,-43.2201" /><path
       inkscape:connector-curvature="0"
       id="path3087"
       style="fill:#231f20;fill-opacity:1;fill-rule:nonzero;stroke:none"
       d="m 151.75,29.6602 c 0,-4.6704 1.49,-6.15 6.17,-6.15 l 59.29,0 c 4.72,0 5.17,6.3898 5.17,6.15 0,0 0.73,4.25 1.32,7.8699 0.16,0.9898 -0.19,2.7301 -2.37,2.7301 l -38.31,0 c -1.8,0 -3.26,1.4597 -3.26,3.2597 l 0,8.8801 c 0,1.8 1.46,3.2602 3.26,3.2602 l 12.17,0 c 1.97,0 3.56,1.5898 3.56,3.55 l 0,7.1 c 0,1.9597 -1.59,3.5597 -3.56,3.5597 l -12.17,0 c -1.8,0 -3.26,1.45 -3.26,3.25 l 0,8.8801 c 0,1.8 1.46,3.2602 3.26,3.2602 l 35.93,0 c 2.19,0 2.54,1.7398 2.38,2.7398 -0.59,3.6102 -1.33,9.0398 -1.33,9.0398 0,-0.2296 -0.44,6.1602 -5.16,6.1602 l -56.92,0 c -4.68,0 -6.17,-1.49 -6.17,-6.1602 l 0,-67.3796" /><path
       inkscape:connector-curvature="0"
       id="path3089"
       style="fill:#231f20;fill-opacity:1;fill-rule:nonzero;stroke:none"
       d="m 520.92,29.6602 c 0,-4.6704 1.49,-6.15 6.17,-6.15 l 59.3,0 c 4.72,0 5.16,6.3898 5.16,6.15 0,0 0.74,4.25 1.33,7.8699 0.16,0.9898 -0.2,2.7301 -2.38,2.7301 l -38.3,0 c -1.8,0 -3.27,1.4597 -3.27,3.2597 l 0,8.8801 c 0,1.8 1.47,3.2602 3.27,3.2602 l 12.16,0 c 1.97,0 3.57,1.5898 3.57,3.55 l 0,7.1 c 0,1.9597 -1.6,3.5597 -3.57,3.5597 l -12.16,0 c -1.8,0 -3.27,1.45 -3.27,3.25 l 0,8.8801 c 0,1.8 1.47,3.2602 3.27,3.2602 l 35.93,0 c 2.18,0 2.53,1.7398 2.37,2.7398 -0.59,3.6102 -1.32,9.0398 -1.32,9.0398 0,-0.2296 -0.45,6.1602 -5.17,6.1602 l -56.92,0 c -4.68,0 -6.17,-1.49 -6.17,-6.1602 l 0,-67.3796" /><path
       inkscape:connector-curvature="0"
       id="path3091"
       style="fill:#231f20;fill-opacity:1;fill-rule:nonzero;stroke:none"
       d="m 82.4199,27.4801 c 1.2399,1.0898 2.9403,3.6301 2.9403,3.6301 L 129.85,98.2199 c 0,0 2.75,3.0101 1.39,4.3601 -0.69,0.7 -2.85,0.64 -2.85,0.64 l -24.99,0 c 0,0 -1.95,-0.87 -2.83,-1.75 -0.8802,-0.88 -2.3802,-3.1001 -2.3802,-3.1001 L 81.8102,76.8102 65.4602,98.3699 c 0,0 -1.5,2.2201 -2.3801,3.1001 -0.8801,0.88 -2.8301,1.75 -2.8301,1.75 l -24.9898,0 c 0,0 -2.1602,0.06 -2.8504,-0.64 -1.3598,-1.35 1.4004,-4.3601 1.4004,-4.3601 L 78.2898,31.1102 c 0,0 1.7102,-2.5403 2.95,-3.6301 0.1602,-0.1602 0.8903,-0.2903 1.1801,0" /><path
       inkscape:connector-curvature="0"
       id="path3093"
       style="fill:#231f20;fill-opacity:1;fill-rule:nonzero;stroke:none"
       d="M 611.68,27.1801 C 610.98,26.1 609.09,22.6699 613.05,22.5 l 27.67,0 c 0,0 1.95,0.8699 2.83,1.75 0.88,0.8801 2.38,3.1 2.38,3.1 L 658.58,43.9398 671.23,27.35 c 0,0 1.5,-2.2199 2.38,-3.1 0.88,-0.8801 2.83,-1.75 2.83,-1.75 l 27.67,0 c 3.96,0.1699 2.06,3.6 1.37,4.6801 l 0.09,0.3199 -23.43,34.7602 23.43,34.7796 c 0,0 2.05,2.5301 0.21,4.3602 -0.7,0.69 -1.67,0.63 -1.67,0.63 l -27.67,0 c 0,0 -1.95,-0.86 -2.83,-1.74 -0.88,-0.8798 -2.38,-3.1002 -2.38,-3.1002 l -12.65,-16.6 -12.65,16.6 c 0,0 -1.5,2.2204 -2.38,3.1002 -0.88,0.88 -2.83,1.74 -2.83,1.74 l -27.67,0 c 0,0 -0.97,0.06 -1.67,-0.63 -1.84,-1.8301 0.21,-4.3602 0.21,-4.3602 L 635.02,62.2602 611.59,27.5 l 0.09,-0.3199" /><path
       inkscape:connector-curvature="0"
       id="path3095"
       style="fill:#231f20;fill-opacity:1;fill-rule:nonzero;stroke:none"
       d="m 443.47,22.5 c 2.28,0 3.38,1.0898 3.38,3.3699 l 0,53.1699 c 0,1.6 1.07,2.6704 2.67,2.6704 l 12.76,0 c 4.59,0 7.71,-2.5903 7.71,-6.5204 0,-3.9199 -3.12,-8.8796 -7.71,-8.8796 l 0,-31.9704 c 0,-0.9097 8.53,-11.8398 9.49,-11.8398 l 23.75,0 c 8.9,0 4.74,4.7398 4.74,4.7398 l -18.99,26.4301 c 8.5,5 15.43,14.1 15.43,23.3 0,13.7301 -10.38,24.8701 -26.11,24.8701 l -46.42,0 c -3.21,0 -5.81,-1.42 -5.81,-4.6201 l 0,-68.9199 c 0,-3.2 1.41,-5.8 4.63,-5.8 l 20.48,0" /><path
       inkscape:connector-curvature="0"
       id="path3097"
       style="fill:#231f20;fill-opacity:1;fill-rule:nonzero;stroke:none"
       d="m 412.42,23.8199 0,77.8801 c 0,5.49 1.76,7.24 7.26,7.24 l 50.91,0 c 19.67,0 33.23,-14.3099 33.23,-31.9701 0,-10.5199 -5.65,-19.85 -14.38,-25.6801 L 489.58,50.9199 510.95,22.5 c 0,0 3.54,-5.9199 -1.19,-5.9199 l -36.8,0 c -2.71,0 -4.75,2.3699 -4.75,2.3699 l -10.68,11.8398 0,40.6204 c 2.07,0.3796 4.75,1.0597 4.75,2.0097 0,1.5403 -1.31,2.3699 -4.75,2.3699 -3.44,0 -3.56,-1.1898 -3.56,-1.1898 l 0,-53.25 c 0,-3.0898 -1.69,-4.7699 -4.79,-4.7699 l -29.5,0 c -5.5,0 -7.26,1.75 -7.26,7.2398 z m 246.67,69.3102 7.85,10.1099 c 0,0 1.77,2.61 2.8,3.65 1.04,1.03 3.33,2.05 3.33,2.05 l 41.55,0 c 0,0 2.28,0.05 3.09,-0.76 2.76,-2.75 1,-5.11 1,-5.11 l -27.59,-40.9001 27.59,-40.9 c 0,0 1.76,-2.3597 -1,-5.1097 C 716.9,15.3398 714.62,15.4 714.62,15.4 l -41.55,0 c 0,0 -2.29,1.0199 -3.33,2.05 -1.03,1.0301 -2.8,3.65 -2.8,3.65 L 659.09,31.2102 651.21,21.1 c 0,0 -1.76,-2.6199 -2.8,-3.65 -1.03,-1.0301 -3.33,-2.05 -3.33,-2.05 l -41.54,0 c 0,0 -2.28,-0.0602 -3.1,0.7602 -2.76,2.75 -0.99,5.1097 -0.99,5.1097 l 27.58,40.9 -27.58,40.9001 c 0,0 -1.77,2.36 0.99,5.11 0.82,0.81 3.1,0.76 3.1,0.76 l 41.54,0 c 0,0 2.3,-1.02 3.33,-2.05 1.04,-1.04 2.8,-3.65 2.8,-3.65 l 7.88,-10.1099 z M 82.5199,17.05 c -0.3398,-0.3398 -1.1898,-0.1898 -1.3898,0 -1.4602,1.2898 -3.4602,4.2699 -3.4602,4.2699 L 22.5398,103.07 c 0,0 -3.2398,3.54 -1.6398,5.13 0.8102,0.81 3.35,0.74 3.35,0.74 l 39.1801,0 c 0,0 2.2898,-1.02 3.3199,-2.05 1.0398,-1.04 2.8,-3.65 2.8,-3.65 L 81.8102,87.6301 94.1,103.24 c 0,0 1.7602,2.61 2.8,3.65 1.0301,1.03 3.33,2.05 3.33,2.05 l 39.17,0 c 0,0 2.54,0.07 3.36,-0.74 1.59,-1.59 -1.65,-5.13 -1.65,-5.13 L 85.9801,21.3199 c 0,0 -2,-2.9801 -3.4602,-4.2699 z m 431.9901,6.7699 0,77.8801 c 0,5.49 1.75,7.24 7.26,7.24 l 67.38,0 c 5.56,0 6.08,-7.52 6.08,-7.24 0,0 2.38,-13.7199 2.38,-15.0602 0,-1.3296 0.53,-7.3 -3.96,-7.3 l -37,0 c -0.98,0 -1.78,-0.8 -1.78,-1.7796 0,-0.9801 0.8,-1.7704 1.78,-1.7704 l 13.45,0 c 2.36,0 3.76,-1.4 3.76,-3.75 l 0,-18.5597 c 0,-2.35 -1.4,-3.75 -3.76,-3.75 l -13.45,0 c -0.98,0 -1.78,-0.7903 -1.78,-1.7699 0,-0.9801 0.8,-1.7801 1.78,-1.7801 l 39.37,0 c 4.49,0 3.97,-5.9699 3.97,-7.3 0,-1.3403 -2.39,-15.0602 -2.39,-15.0602 0,0.2801 -0.52,-7.2398 -6.07,-7.2398 l -69.76,0 c -5.51,0 -7.26,1.75 -7.26,7.2398 z m -369.18,0 0,77.8801 c 0,5.49 1.76,7.24 7.27,7.24 l 67.38,0 c 5.55,0 6.07,-7.52 6.07,-7.24 0,0 2.39,-13.7199 2.39,-15.0602 0,-1.3296 0.52,-7.3 -3.97,-7.3 l -37,0 c -0.98,0 -1.78,-0.8 -1.78,-1.7796 0,-0.9801 0.8,-1.7704 1.78,-1.7704 l 13.46,0 c 2.36,0 3.76,-1.4 3.76,-3.75 l 0,-18.5597 c 0,-2.35 -1.4,-3.75 -3.76,-3.75 l -13.46,0 c -0.98,0 -1.78,-0.7903 -1.78,-1.7699 0,-0.9801 0.8,-1.7801 1.78,-1.7801 l 39.38,0 c 4.49,0 3.96,-5.9699 3.96,-7.3 0,-1.3403 -2.38,-15.0602 -2.38,-15.0602 0,0.2801 -0.52,-7.2398 -6.08,-7.2398 l -69.75,0 c -5.51,0 -7.27,1.75 -7.27,7.2398 z m 173.9,56.1199 6.54,23.0802 c 0,0 1.07,2.11 3.23,3.24 2.17,1.13 5.08,1.5 5.08,1.5 l 60.14,0 c 0,0 2.91,-0.37 5.07,-1.5 2.17,-1.13 2.64,-2.64 2.64,-2.64 l 5.93,-23.6802 c 0,0 0.97,-4.3199 -0.12,-5.9898 -1.08,-1.6699 -3.44,-2.3 -3.44,-2.3 l -15.43,0 c 0,0 -2.57,0 -3.79,-1.2199 -1.23,-1.2199 -0.96,-3.5199 -0.96,-3.5199 l 0,-44.9903 c 0,0 -0.38,-2.1898 -1.71,-3.5199 -1.34,-1.3301 -3.04,-1.2199 -3.04,-1.2199 l -30.46,0 c 0,0 -1.7,-0.1102 -3.04,1.2199 -1.33,1.3301 -1.71,3.5199 -1.71,3.5199 l 0,44.9903 c 0,0 0.27,2.3 -0.96,3.5199 -1.22,1.2199 -3.79,1.2199 -3.79,1.2199 l -16.62,0 c 0,0 -2.36,0.6301 -3.44,2.3 -1.08,1.6699 -0.12,5.9898 -0.12,5.9898 z M 230.8,62.1699 c 0,27.7903 21.4,49.1401 49.26,49.1401 16.1,0 30.44,-6.34 39.68,-18.0498 0.55,-0.7 0.33,-5.0403 0.33,-5.0403 l -21.61,-21.9097 -5.77,0 c -2.23,4.6199 -7.28,7.7699 -12.48,7.7699 -6.88,0 -11.42,-4.7801 -11.42,-11.3199 0,-6.5403 4.02,-12.3602 10.9,-12.3602 5.55,0 11.39,2.9898 13.4,7.6199 l 4.14,0 22.03,-22.8398 c 0,0 0.03,-4.1102 -0.02,-4.1699 -10.32,-11.6903 -23.18,-17.9801 -39.18,-17.9801 -27.86,0 -49.26,21.3398 -49.26,49.1398 z M 17.6898,123.15 c 0,0 -6.6398,-0.55 -11.5398,-8.79 C 1.23984,106.11 7.01016,99.4699 7.01016,99.4699 L 67.55,10.6602 c 0,0 4.35,-8.29028 14.2398,-8.29028 9.9,0 15.4403,8.29028 15.4403,8.29028 l 31.5099,45 2.35,0 0,-34.3403 c 0,0 0.79,-6.1199 6.73,-12.03982 C 143.75,3.36016 148.9,3.55 148.9,3.55 l 72.41,0 c 0,0 9.94,-0.73008 14.04,3.36016 5.74,5.71994 4.95,9.66994 4.95,9.66994 0,0 13.06,-16.5801 42.73,-16.5801 26.21,0 38.76,11.5898 44.09,18.95 l 4.45,0 c 0.95,-4.0699 2.64,-9.21992 5.47,-12.03984 5.15,-5.13008 14.84,-4.54024 14.84,-4.54024 l 367.99,0 c 0,0 6.95,0.36992 12.46,8.68008 4.32,6.5102 0.6,15 0.6,15 L 710.37,62.7602 735.3,100.65 c 0,0 3.17,9.48 -2.57,15.2 -7.12,7.1 -18.8,6.12 -18.8,6.12 l -198.23,0 c -3.66,0 -13.06,-8.29 -13.06,-8.29 0,0 -11.08,8.29 -21.37,8.29 l -151.94,0 c -4.79,0 -13.06,-7.11 -13.06,-7.11 0,0 -16.86,10.14 -35.67,10.14 -18.82,0 -40.3,-14.87 -40.3,-14.87 0,0 -5.08,13.02 -21.37,13.02 l -201.2402,0" /></g></svg>